<?xml version="1.0" encoding="UTF-8" standalone="no"?>
<!DOCTYPE svg PUBLIC "-//W3C//DTD SVG 1.1//EN"
 "http://www.w3.org/Graphics/SVG/1.1/DTD/svg11.dtd">
<!-- Generated by graphviz version 2.38.0 (20140413.2041)
 -->
<!-- Title: G Pages: 1 -->
<svg width="428pt" height="775pt"
 viewBox="0.00 0.00 427.68 775.00" xmlns="http://www.w3.org/2000/svg" xmlns:xlink="http://www.w3.org/1999/xlink">
<g id="graph0" class="graph" transform="scale(1 1) rotate(0) translate(4 771)">
<title>G</title>
<polygon fill="white" stroke="none" points="-4,4 -4,-771 423.677,-771 423.677,4 -4,4"/>
<!-- N1 -->
<g id="node1" class="node"><title>N1</title>
<polygon fill="none" stroke="black" points="240.536,-767 102.928,-767 102.928,-731 240.536,-731 240.536,-767"/>
<text text-anchor="middle" x="171.732" y="-744.8" font-family="Times,serif" font-size="14.00">visit registration page</text>
</g>
<!-- N2 -->
<g id="node2" class="node"><title>N2</title>
<polygon fill="none" stroke="black" points="233.795,-694 109.67,-694 109.67,-658 233.795,-658 233.795,-694"/>
<text text-anchor="middle" x="171.732" y="-671.8" font-family="Times,serif" font-size="14.00">enter email address</text>
</g>
<!-- N1&#45;&gt;N2 -->
<g id="edge1" class="edge"><title>N1&#45;&gt;N2</title>
<path fill="none" stroke="black" d="M171.732,-730.813C171.732,-722.789 171.732,-713.047 171.732,-704.069"/>
<polygon fill="black" stroke="black" points="175.233,-704.029 171.732,-694.029 168.233,-704.029 175.233,-704.029"/>
</g>
<!-- N3 -->
<g id="node3" class="node"><title>N3</title>
<polygon fill="none" stroke="black" points="171.732,-621 112.548,-603 171.732,-585 230.917,-603 171.732,-621"/>
<text text-anchor="middle" x="171.732" y="-598.8" font-family="Times,serif" font-size="14.00">new user</text>
</g>
<!-- N2&#45;&gt;N3 -->
<g id="edge15" class="edge"><title>N2&#45;&gt;N3</title>
<path fill="none" stroke="black" d="M171.732,-657.813C171.732,-649.789 171.732,-640.047 171.732,-631.069"/>
<polygon fill="black" stroke="black" points="175.233,-631.029 171.732,-621.029 168.233,-631.029 175.233,-631.029"/>
</g>
<!-- N4 -->
<g id="node4" class="node"><title>N4</title>
<polygon fill="none" stroke="black" points="174.66,-535 30.8047,-535 30.8047,-499 174.66,-499 174.66,-535"/>
<text text-anchor="middle" x="102.732" y="-512.8" font-family="Times,serif" font-size="14.00">fill in registration form</text>
</g>
<!-- N3&#45;&gt;N4 -->
<g id="edge8" class="edge"><title>N3&#45;&gt;N4</title>
<path fill="none" stroke="black" d="M160.338,-588.129C150.262,-575.862 135.319,-557.67 123.177,-542.889"/>
<polygon fill="black" stroke="black" points="125.82,-540.593 116.768,-535.087 120.411,-545.036 125.82,-540.593"/>
<text text-anchor="middle" x="151.921" y="-555.8" font-family="Times,serif" font-size="14.00">Yes</text>
</g>
<!-- N11 -->
<g id="node11" class="node"><title>N11</title>
<polygon fill="none" stroke="black" points="309.095,-535 208.369,-535 208.369,-499 309.095,-499 309.095,-535"/>
<text text-anchor="middle" x="258.732" y="-512.8" font-family="Times,serif" font-size="14.00">enter password</text>
</g>
<!-- N3&#45;&gt;N11 -->
<g id="edge14" class="edge"><title>N3&#45;&gt;N11</title>
<path fill="none" stroke="black" d="M185.326,-588.875C198.222,-576.424 217.915,-557.41 233.658,-542.21"/>
<polygon fill="black" stroke="black" points="236.259,-544.564 241.022,-535.1 231.397,-539.528 236.259,-544.564"/>
<text text-anchor="middle" x="229.288" y="-555.8" font-family="Times,serif" font-size="14.00">No</text>
</g>
<!-- N5 -->
<g id="node5" class="node"><title>N5</title>
<polygon fill="none" stroke="black" points="119.85,-462 65.6151,-462 65.6151,-426 119.85,-426 119.85,-462"/>
<text text-anchor="middle" x="92.7324" y="-439.8" font-family="Times,serif" font-size="14.00">submit</text>
</g>
<!-- N4&#45;&gt;N5 -->
<g id="edge2" class="edge"><title>N4&#45;&gt;N5</title>
<path fill="none" stroke="black" d="M100.312,-498.813C99.1817,-490.789 97.8096,-481.047 96.545,-472.069"/>
<polygon fill="black" stroke="black" points="99.9914,-471.443 95.1309,-462.029 93.0598,-472.419 99.9914,-471.443"/>
</g>
<!-- N6 -->
<g id="node6" class="node"><title>N6</title>
<polygon fill="none" stroke="black" points="91.7324,-376 -0.233029,-358 91.7324,-340 183.698,-358 91.7324,-376"/>
<text text-anchor="middle" x="91.7324" y="-353.8" font-family="Times,serif" font-size="14.00">validation error</text>
</g>
<!-- N5&#45;&gt;N6 -->
<g id="edge7" class="edge"><title>N5&#45;&gt;N6</title>
<path fill="none" stroke="black" d="M92.5252,-425.595C92.3903,-414.257 92.2113,-399.227 92.0576,-386.315"/>
<polygon fill="black" stroke="black" points="95.5548,-386.053 91.936,-376.095 88.5553,-386.136 95.5548,-386.053"/>
</g>
<!-- N7 -->
<g id="node7" class="node"><title>N7</title>
<polygon fill="none" stroke="black" points="146.991,-290 18.4734,-290 18.4734,-254 146.991,-254 146.991,-290"/>
<text text-anchor="middle" x="82.7324" y="-267.8" font-family="Times,serif" font-size="14.00">fix registration form</text>
</g>
<!-- N6&#45;&gt;N7 -->
<g id="edge5" class="edge"><title>N6&#45;&gt;N7</title>
<path fill="none" stroke="black" d="M89.9112,-340.001C88.6993,-328.691 87.0799,-313.576 85.6859,-300.566"/>
<polygon fill="black" stroke="black" points="89.1274,-299.832 84.5819,-290.262 82.1672,-300.578 89.1274,-299.832"/>
<text text-anchor="middle" x="98.9214" y="-310.8" font-family="Times,serif" font-size="14.00">Yes</text>
</g>
<!-- N10 -->
<g id="node10" class="node"><title>N10</title>
<polygon fill="none" stroke="black" points="201.85,-236 147.615,-236 147.615,-200 201.85,-200 201.85,-236"/>
<text text-anchor="middle" x="174.732" y="-213.8" font-family="Times,serif" font-size="14.00">submit</text>
</g>
<!-- N6&#45;&gt;N10 -->
<g id="edge6" class="edge"><title>N6&#45;&gt;N10</title>
<path fill="none" stroke="black" d="M109.195,-343.119C123.704,-330.681 143.833,-311.175 155.732,-290 163.304,-276.526 167.965,-259.908 170.773,-246.137"/>
<polygon fill="black" stroke="black" points="174.223,-246.727 172.578,-236.261 167.337,-245.469 174.223,-246.727"/>
<text text-anchor="middle" x="151.288" y="-310.8" font-family="Times,serif" font-size="14.00">No</text>
</g>
<!-- N8 -->
<g id="node8" class="node"><title>N8</title>
<polygon fill="none" stroke="black" points="143.212,-182 50.2529,-182 50.2529,-146 143.212,-146 143.212,-182"/>
<text text-anchor="middle" x="96.7324" y="-159.8" font-family="Times,serif" font-size="14.00">review the fix</text>
</g>
<!-- N7&#45;&gt;N8 -->
<g id="edge3" class="edge"><title>N7&#45;&gt;N8</title>
<path fill="none" stroke="black" d="M84.9818,-253.969C87.1731,-237.378 90.5404,-211.883 93.1095,-192.431"/>
<polygon fill="black" stroke="black" points="96.6026,-192.713 94.4422,-182.341 89.6628,-191.796 96.6026,-192.713"/>
</g>
<!-- N9 -->
<g id="node9" class="node"><title>N9</title>
<polygon fill="none" stroke="black" points="140.85,-109 86.6151,-109 86.6151,-73 140.85,-73 140.85,-109"/>
<text text-anchor="middle" x="113.732" y="-86.8" font-family="Times,serif" font-size="14.00">submit</text>
</g>
<!-- N8&#45;&gt;N9 -->
<g id="edge4" class="edge"><title>N8&#45;&gt;N9</title>
<path fill="none" stroke="black" d="M100.848,-145.813C102.79,-137.702 105.152,-127.836 107.321,-118.777"/>
<polygon fill="black" stroke="black" points="110.73,-119.569 109.655,-109.029 103.923,-117.939 110.73,-119.569"/>
</g>
<!-- N16 -->
<g id="node16" class="node"><title>N16</title>
<polygon fill="none" stroke="black" points="251.095,-36 98.3701,-36 98.3701,-0 251.095,-0 251.095,-36"/>
<text text-anchor="middle" x="174.732" y="-13.8" font-family="Times,serif" font-size="14.00">confirm registration info</text>
</g>
<!-- N9&#45;&gt;N16 -->
<g id="edge16" class="edge"><title>N9&#45;&gt;N16</title>
<path fill="none" stroke="black" d="M128.499,-72.8129C135.992,-64.0918 145.229,-53.3402 153.472,-43.7459"/>
<polygon fill="black" stroke="black" points="156.24,-45.8947 160.102,-36.0288 150.931,-41.333 156.24,-45.8947"/>
</g>
<!-- N10&#45;&gt;N16 -->
<g id="edge17" class="edge"><title>N10&#45;&gt;N16</title>
<path fill="none" stroke="black" d="M174.732,-199.775C174.732,-165.314 174.732,-87.6454 174.732,-46.2236"/>
<polygon fill="black" stroke="black" points="178.233,-46.044 174.732,-36.044 171.233,-46.0441 178.233,-46.044"/>
</g>
<!-- N12 -->
<g id="node12" class="node"><title>N12</title>
<polygon fill="none" stroke="black" points="263.732,-462 166.997,-444 263.732,-426 360.468,-444 263.732,-462"/>
<text text-anchor="middle" x="263.732" y="-439.8" font-family="Times,serif" font-size="14.00">password wrong</text>
</g>
<!-- N11&#45;&gt;N12 -->
<g id="edge11" class="edge"><title>N11&#45;&gt;N12</title>
<path fill="none" stroke="black" d="M259.943,-498.813C260.508,-490.789 261.194,-481.047 261.826,-472.069"/>
<polygon fill="black" stroke="black" points="265.322,-472.25 262.533,-462.029 258.339,-471.758 265.322,-472.25"/>
</g>
<!-- N13 -->
<g id="node13" class="node"><title>N13</title>
<polygon fill="none" stroke="black" points="326.095,-376 201.37,-376 201.37,-340 326.095,-340 326.095,-376"/>
<text text-anchor="middle" x="263.732" y="-353.8" font-family="Times,serif" font-size="14.00">ask password again</text>
</g>
<!-- N12&#45;&gt;N13 -->
<g id="edge9" class="edge"><title>N12&#45;&gt;N13</title>
<path fill="none" stroke="black" d="M263.732,-425.595C263.732,-414.257 263.732,-399.227 263.732,-386.315"/>
<polygon fill="black" stroke="black" points="267.233,-386.095 263.732,-376.095 260.233,-386.095 267.233,-386.095"/>
<text text-anchor="middle" x="273.921" y="-396.8" font-family="Times,serif" font-size="14.00">Yes</text>
</g>
<!-- N14 -->
<g id="node14" class="node"><title>N14</title>
<polygon fill="none" stroke="black" points="419.622,-376 343.843,-376 343.843,-340 419.622,-340 419.622,-376"/>
<text text-anchor="middle" x="381.732" y="-353.8" font-family="Times,serif" font-size="14.00">good to go</text>
</g>
<!-- N12&#45;&gt;N14 -->
<g id="edge10" class="edge"><title>N12&#45;&gt;N14</title>
<path fill="none" stroke="black" d="M282.691,-429.504C300.635,-416.73 327.936,-397.296 349.333,-382.064"/>
<polygon fill="black" stroke="black" points="351.389,-384.896 357.506,-376.246 347.33,-379.194 351.389,-384.896"/>
<text text-anchor="middle" x="338.288" y="-396.8" font-family="Times,serif" font-size="14.00">No</text>
</g>
<!-- N15 -->
<g id="node15" class="node"><title>N15</title>
<polygon fill="none" stroke="black" points="334.868,-290 202.597,-290 202.597,-254 334.868,-254 334.868,-290"/>
<text text-anchor="middle" x="268.732" y="-267.8" font-family="Times,serif" font-size="14.00">confirm account info</text>
</g>
<!-- N13&#45;&gt;N15 -->
<g id="edge12" class="edge"><title>N13&#45;&gt;N15</title>
<path fill="none" stroke="black" d="M264.768,-339.595C265.443,-328.257 266.338,-313.227 267.107,-300.315"/>
<polygon fill="black" stroke="black" points="270.614,-300.285 267.715,-290.095 263.627,-299.869 270.614,-300.285"/>
</g>
<!-- N14&#45;&gt;N15 -->
<g id="edge13" class="edge"><title>N14&#45;&gt;N15</title>
<path fill="none" stroke="black" d="M358.593,-339.799C341.682,-327.228 318.561,-310.04 300.006,-296.248"/>
<polygon fill="black" stroke="black" points="301.955,-293.335 291.841,-290.178 297.779,-298.953 301.955,-293.335"/>
</g>
<!-- N15&#45;&gt;N16 -->
<g id="edge18" class="edge"><title>N15&#45;&gt;N16</title>
<path fill="none" stroke="black" d="M262.565,-253.781C249.347,-216.987 217.176,-128.024 188.732,-54 187.676,-51.2509 186.559,-48.3869 185.434,-45.5332"/>
<polygon fill="black" stroke="black" points="188.611,-44.0507 181.662,-36.0532 182.107,-46.6386 188.611,-44.0507"/>
</g>
</g>
</svg>
