<svg xmlns="http://www.w3.org/2000/svg" xmlns:xlink="http://www.w3.org/1999/xlink" version="1.1" width="810" height="880" viewBox="0 0 810 880"><g transform="translate(20,0)"><path d="M74,64 a30,30 0 0,0 -27,-27 a16,18 0 1,0 -16,0 a30,30 0, 0,0 -27,27 z" stroke-width="3" fill="#dcd7d7" stroke="#3c4260"/></g>
<text x="42" y="60" font-family="'Roboto Condensed', sans-serif" font-size="12" fill="#3c4260">Student</text>
<line x1="60" y1="65" x2="60" y2="830" stroke="#3c4260" stroke-width="3"/>
<rect fill="#dcd7d7" stroke="#3c4260" rx="2" ry="2" x="210" y="10" width="100" height="55" stroke-width="3"/>
<text x="220" y="30" font-family="'Roboto Condensed', sans-serif" font-size="12" fill="#3c4260">Partner Site</text>
<line x1="260" y1="65" x2="260" y2="270" stroke="#3c4260" stroke-width="3"/>
<rect fill="#dcd7d7" stroke="#3c4260" rx="2" ry="2" x="410" y="10" width="100" height="55" stroke-width="3"/>
<text x="420" y="30" font-family="'Roboto Condensed', sans-serif" font-size="12" fill="#3c4260">Web App</text>
<line x1="460" y1="65" x2="460" y2="750" stroke="#3c4260" stroke-width="3"/>
<rect fill="#dcd7d7" stroke="#3c4260" rx="2" ry="2" x="610" y="10" width="100" height="55" stroke-width="3"/>
<text x="620" y="30" font-family="'Roboto Condensed', sans-serif" font-size="12" fill="#3c4260">Reg API</text>
<line x1="660" y1="65" x2="660" y2="830" stroke="#3c4260" stroke-width="3"/>
<polygon points="250,95 260,100 250,105" fill="#3c4260"/>
<line x1="60" y1="100" x2="250" y2="100" stroke="#3c4260" stroke-width="2" />
<text x="100" y="95" font-family="'Roboto Condensed', sans-serif" font-size="11" fill="#3c4260">Choose course(S)</text>
<polygon points="650,135 660,140 650,145" fill="#3c4260"/>
<line x1="260" y1="140" x2="650" y2="140" stroke="#3c4260" stroke-width="2" />
<text x="300" y="135" font-family="'Roboto Condensed', sans-serif" font-size="11" fill="#3c4260">Issue key for(S)</text>
<path fill="#eeeeee" d="M620,141 L620,150 H475 V195 H650 V150 H630 z" />
<text x="480" y="163" font-family="'Roboto Condensed', sans-serif" font-size="11" fill="#3c4260">
<tspan x="480" y="163"> It creates new key</tspan>
</text>
<polygon points="270,215 260,220 270,225" fill="#3c4260"/>
<line x1="270" y1="220" x2="660" y2="220" stroke="#3c4260" stroke-width="2" stroke-dasharray="4,2"/>
<text x="310" y="215" font-family="'Roboto Condensed', sans-serif" font-size="11" fill="#3c4260">Registration key(K)</text>
<polygon points="450,255 460,260 450,265" fill="#3c4260"/>
<line x1="260" y1="260" x2="450" y2="260" stroke="#3c4260" stroke-width="2" />
<text x="300" y="255" font-family="'Roboto Condensed', sans-serif" font-size="11" fill="#3c4260">Register with key(K)</text>
<polygon points="70,295 60,300 70,305" fill="#3c4260"/>
<line x1="70" y1="300" x2="460" y2="300" stroke="#3c4260" stroke-width="2" stroke-dasharray="4,2"/>
<text x="110" y="295" font-family="'Roboto Condensed', sans-serif" font-size="11" fill="#3c4260">Registration form</text>
<polygon points="450,335 460,340 450,345" fill="#3c4260"/>
<line x1="60" y1="340" x2="450" y2="340" stroke="#3c4260" stroke-width="2" />
<text x="100" y="335" font-family="'Roboto Condensed', sans-serif" font-size="11" fill="#3c4260">Fill the form(F)</text>
<polyline points="460,380 510,380 510,420 465,420" fill="none" stroke-width="2" stroke-linejoin="round" stroke="#3c4260" />
<polygon points="470,415 460,420 470,425" fill="#3c4260"/>
<text x="470" y="375" font-family="'Roboto Condensed', sans-serif" font-size="11" fill="#3c4260">Save the form(F)</text>
<polygon points="650,455 660,460 650,465" fill="#3c4260"/>
<line x1="460" y1="460" x2="650" y2="460" stroke="#3c4260" stroke-width="2" />
<text x="500" y="455" font-family="'Roboto Condensed', sans-serif" font-size="11" fill="#3c4260">Register(K, F)</text>
<path fill="#eeeeee" d="M620,461 L620,470 H475 V515 H650 V470 H630 z" />
<text x="480" y="483" font-family="'Roboto Condensed', sans-serif" font-size="11" fill="#3c4260">
<tspan x="480" y="483"> New API for the registration</tspan>
<tspan x="480" y="496">process. It takes two parameters -</tspan>
<tspan x="480" y="509">K and F</tspan>
</text>
<polyline points="660,540 710,540 710,580 665,580" fill="none" stroke-width="2" stroke-linejoin="round" stroke="#3c4260" />
<polygon points="670,575 660,580 670,585" fill="#3c4260"/>
<text x="670" y="535" font-family="'Roboto Condensed', sans-serif" font-size="11" fill="#3c4260">Create course</text>
<polygon points="470,615 460,620 470,625" fill="#3c4260"/>
<line x1="470" y1="620" x2="660" y2="620" stroke="#3c4260" stroke-width="2" stroke-dasharray="4,2"/>
<text x="510" y="615" font-family="'Roboto Condensed', sans-serif" font-size="11" fill="#3c4260">Course details(C)</text>
<polyline points="460,660 510,660 510,700 465,700" fill="none" stroke-width="2" stroke-linejoin="round" stroke="#3c4260" />
<polygon points="470,695 460,700 470,705" fill="#3c4260"/>
<text x="470" y="655" font-family="'Roboto Condensed', sans-serif" font-size="11" fill="#3c4260">Save(C)</text>
<polygon points="70,735 60,740 70,745" fill="#3c4260"/>
<line x1="70" y1="740" x2="460" y2="740" stroke="#3c4260" stroke-width="2" stroke-dasharray="4,2"/>
<text x="110" y="735" font-family="'Roboto Condensed', sans-serif" font-size="11" fill="#3c4260">Show course summary</text>
<polygon points="650,775 660,780 650,785" fill="#3c4260"/>
<line x1="60" y1="780" x2="650" y2="780" stroke="#3c4260" stroke-width="2" />
<text x="100" y="775" font-family="'Roboto Condensed', sans-serif" font-size="11" fill="#3c4260">Click study button</text>
<polygon points="70,815 60,820 70,825" fill="#3c4260"/>
<line x1="70" y1="820" x2="660" y2="820" stroke="#3c4260" stroke-width="2" stroke-dasharray="4,2"/>
<text x="110" y="815" font-family="'Roboto Condensed', sans-serif" font-size="11" fill="#3c4260">Show mypage</text></svg>
